{"title":"Nicki Minaj - Lookin Ass Nigga 2014 HD 720p x264 AAC [GWC].mp4","uid":9609511,"size":45935252,"categoryP":"video","categoryS":"music_videos","magnet":"?xt=urn:btih:a4e66865e22501972171b37dae3538ed193dc587&amp;dn=Nicki+Minaj+-+Lookin+Ass+Nigga+2014+HD+720p+x264+AAC+%5BGWC%5D.mp4&amp;tr=udp%3A%2F%2Ftracker.openbittorrent.com%3A80&amp;tr=udp%3A%2F%2Fopen.demonii.com%3A1337&amp;tr=udp%3A%2F%2Ftracker.coppersurfer.tk%3A6969&amp;tr=udp%3A%2F%2Fexodus.desync.com%3A6969","seeders":15,"leechers":7,"uploader":"canc232","files":1,"time":1392288207,"description":"Nicki Minaj - Lookin Ass Nigga HD 720p x264 AAC [GWC]\n\n\nCOVER : &lt;a href=&quot;\nhttp://i.imgur.com/oA0c50i.jpg&quot; rel=&quot;nofollow&quot; target=&quot;_NEW&quot;&gt;\nhttp://i.imgur.com/oA0c50i.jpg&lt;/a&gt;\n\n\nTHUMBNAIL IMAGE : &lt;a href=&quot;\nhttp://img834.imageshack.us/img834/696/1vva.jpg&quot; rel=&quot;nofollow&quot; target=&quot;_NEW&quot;&gt;\nhttp://img834.imageshack.us/img834/696/1vva.jpg&lt;/a&gt;\n\n\n\nMEDIA INFO :\nGeneral \nFormat : MPEG-4 \nFormat profile : Base Media \nFile size : 43.8 MiB \nDuration : 2mn 56s \nOverall bit rate mode : Variable \nOverall bit rate : 2 081 Kbps \n\nVideo \nFormat : AVC \nFormat profile : &lt;a class=&quot;__cf_email__&quot; href=&quot;/cdn-cgi/l/email-protection&quot; data-cfemail=&quot;b2ffd3dbdcf2fe869c83&quot;&gt;[email&amp;#160;protected]&lt;/a&gt;&lt;script cf-hash='f9e31' type=&quot;text/javascript&quot;&gt;\n/* &lt;![CDATA[ */!function(){try{var t=&quot;currentScript&quot;in document?document.currentScript:function(){for(var t=document.getElementsByTagName(&quot;script&quot;),e=t.length;e--;)if(t[e].getAttribute(&quot;cf-hash&quot;))return t[e]}();if(t&amp;&amp;t.previousSibling){var e,r,n,i,c=t.previousSibling,a=c.getAttribute(&quot;data-cfemail&quot;);if(a){for(e=&quot;&quot;,r=parseInt(a.substr(0,2),16),n=2;a.length-n;n+=2)i=parseInt(a.substr(n,2),16)^r,e+=String.fromCharCode(i);e=document.createTextNode(e),c.parentNode.replaceChild(e,c)}}}catch(u){}}();/* ]]&gt; */&lt;/script&gt; \nFormat settings, CABAC : Yes \nFormat settings, ReFrames : 3 frames \nDuration : 2mn 56s \nBit rate mode : Variable \nBit rate : 2 000 Kbps \nMaximum bit rate : 8 000 Kbps \nWidth : 1 280 pixels \nHeight : 720 pixels \nDisplay aspect ratio : 16:9 \nFrame rate mode : Variable \nFrame rate : 23.976 fps \nStream size : 42.1 MiB (96%) \nTitle : Nicki Minaj - Lookin Ass Nigga HD 720p x264 AAC [GWC] \nLanguage : English \n\nAudio \nFormat : AAC \nFormat profile : LC \nDuration : 2mn 56s \nBit rate mode : Variable \nChannel(s) : 2 channels \nSampling rate : 48.0 KHz \nStream size : 1.65 MiB (4%) \nLanguage : English","torrent":{"xt":"urn:btih:a4e66865e22501972171b37dae3538ed193dc587","amp;dn":"Nicki+Minaj+-+Lookin+Ass+Nigga+2014+HD+720p+x264+AAC+%5BGWC%5D.mp4","amp;tr":["udp%3A%2F%2Ftracker.openbittorrent.com%3A80","udp%3A%2F%2Fopen.demonii.com%3A1337","udp%3A%2F%2Ftracker.coppersurfer.tk%3A6969","udp%3A%2F%2Fexodus.desync.com%3A6969"],"infoHash":"a4e66865e22501972171b37dae3538ed193dc587","infoHashBuffer":{"type":"Buffer","data":[164,230,104,101,226,37,1,151,33,113,179,125,174,53,56,237,25,61,197,135]},"announce":[],"urlList":[]}}